<?xml version="1.0" encoding="UTF-8" ?>
<!DOCTYPE svg PUBLIC "-//W3C//DTD SVG 1.1//EN" "http://www.w3.org/Graphics/SVG/1.1/DTD/svg11.dtd">
<svg width="512pt" height="512pt" viewBox="0 0 512 512" version="1.1" xmlns="http://www.w3.org/2000/svg">
<g id="#e30000ff">
<path fill="#e30000" opacity="1.00" d=" M 45.81 9.93 C 48.16 6.18 52.51 3.81 56.96 4.01 C 77.02 4.01 97.08 3.94 117.13 4.05 C 123.87 3.99 129.82 10.26 129.51 16.98 C 129.37 22.99 130.12 29.11 128.88 35.03 C 127.75 39.71 123.46 42.55 119.13 43.94 C 119.12 47.03 119.12 50.13 119.13 53.23 C 133.63 42.07 148.06 30.82 162.56 19.67 C 167.43 15.85 174.05 14.39 180.03 16.03 C 184.69 17.15 188.32 20.45 192.02 23.28 C 243.08 62.82 294.20 102.29 345.24 141.86 C 348.91 144.48 351.18 149.70 348.91 153.93 C 346.13 158.70 342.43 162.85 339.30 167.38 C 336.89 170.52 334.78 174.46 330.73 175.68 C 327.24 176.83 323.48 175.57 320.72 173.33 C 314.07 168.25 307.50 163.07 300.85 157.99 C 300.70 163.13 301.19 168.31 300.59 173.43 C 300.04 177.31 295.97 180.12 292.15 179.36 C 288.61 178.90 285.90 175.58 285.94 172.05 C 285.66 163.49 285.96 154.91 285.82 146.34 C 248.84 117.78 211.91 89.14 174.94 60.57 C 137.97 89.14 101.07 117.78 64.09 146.32 C 64.02 230.00 64.08 313.67 64.06 397.34 C 81.93 395.33 100.08 404.66 109.19 420.08 C 115.32 419.04 121.62 419.01 127.63 420.76 C 137.39 409.43 152.53 402.57 167.56 404.20 C 182.73 405.29 196.94 414.41 204.44 427.60 C 210.22 437.32 211.75 449.08 209.91 460.14 C 214.30 460.30 219.13 459.44 223.08 461.87 C 226.97 464.07 229.62 468.38 229.54 472.89 C 229.65 479.63 229.51 486.37 229.57 493.11 C 248.57 493.11 267.57 493.16 286.56 493.09 C 286.58 454.06 286.52 415.04 286.59 376.02 C 286.40 368.98 292.95 362.83 299.93 363.22 C 324.95 363.23 349.97 363.17 374.99 363.25 C 381.65 363.22 387.66 369.22 387.50 375.90 C 387.59 397.93 387.50 419.96 387.54 441.98 C 387.71 445.24 386.63 448.91 383.45 450.40 C 378.85 453.02 372.50 449.25 372.64 443.95 C 372.37 422.05 372.61 400.13 372.53 378.23 C 348.88 378.21 325.23 378.23 301.57 378.22 C 301.56 416.52 301.56 454.81 301.57 493.11 C 325.23 493.09 348.89 493.19 372.55 493.06 C 372.64 488.05 372.23 483.02 372.75 478.03 C 373.07 474.79 375.87 472.09 379.07 471.72 C 382.84 471.12 386.80 473.93 387.29 477.76 C 387.87 482.85 387.38 488.00 387.54 493.11 C 407.67 493.13 427.80 493.12 447.93 493.12 C 447.95 441.04 447.92 388.97 447.95 336.90 C 411.00 308.27 374.03 279.68 337.06 251.07 C 289.89 287.56 242.70 324.04 195.54 360.55 C 191.87 363.34 188.06 367.18 183.04 366.55 C 178.15 366.16 175.49 361.63 172.78 358.16 C 169.64 353.70 165.77 349.74 163.15 344.94 C 160.81 340.44 163.06 334.96 166.99 332.18 C 204.41 303.21 241.86 274.25 279.29 245.29 C 281.43 243.53 283.96 242.14 285.70 239.94 C 286.16 228.95 285.55 217.93 285.95 206.93 C 285.98 203.86 288.05 200.93 291.01 200.03 C 295.27 198.47 300.35 201.66 300.67 206.21 C 301.13 213.64 300.69 221.11 300.86 228.56 C 309.15 222.27 317.25 215.74 325.60 209.54 C 332.63 204.38 342.89 204.82 349.62 210.30 C 402.09 250.87 454.53 291.48 507.00 332.06 C 509.52 333.92 511.26 336.60 512.00 339.64 L 512.00 341.69 C 510.32 347.19 505.99 351.24 502.86 355.91 C 500.06 359.37 497.97 363.85 493.77 365.83 C 489.94 367.60 485.55 366.12 482.46 363.58 C 475.96 358.56 469.48 353.49 462.96 348.50 C 462.93 396.71 462.94 444.91 462.95 493.12 C 470.25 493.22 477.56 492.94 484.86 493.22 C 488.11 493.31 491.21 495.67 491.88 498.91 C 493.38 504.16 488.18 508.87 483.08 508.12 C 327.07 508.12 171.05 508.15 15.04 508.11 C 7.99 508.49 1.60 502.07 1.93 495.04 C 1.92 487.32 1.77 479.59 2.01 471.87 C 2.01 468.72 4.05 466.17 5.67 463.65 C 5.20 457.10 6.16 450.31 9.62 444.63 C 12.92 438.72 18.45 434.41 24.57 431.70 C 28.00 418.80 37.14 407.76 49.04 401.78 C 49.08 320.52 49.06 239.26 49.05 158.00 C 42.41 163.07 35.85 168.23 29.22 173.31 C 26.47 175.54 22.74 176.83 19.24 175.70 C 15.23 174.48 13.04 170.62 10.58 167.54 C 7.51 163.21 3.76 159.34 1.17 154.69 C -1.25 150.24 0.72 144.61 4.72 141.83 C 20.46 129.60 36.23 117.41 52.02 105.24 C 52.92 104.38 54.41 103.62 54.15 102.12 C 54.23 82.73 54.18 63.33 54.16 43.93 C 51.21 42.77 48.04 41.50 46.23 38.73 C 42.91 34.22 43.96 28.29 43.75 23.06 C 43.91 18.67 43.09 13.74 45.81 9.93 M 58.79 19.00 C 58.78 22.33 58.78 25.66 58.79 28.99 C 77.38 28.97 95.97 29.08 114.56 28.94 C 114.59 25.61 114.50 22.28 114.46 18.95 C 95.91 19.07 77.35 18.96 58.79 19.00 M 171.01 32.09 C 119.68 71.81 68.33 111.52 17.01 151.25 C 19.02 153.88 21.03 156.50 23.06 159.11 C 70.81 122.19 118.55 85.26 166.28 48.31 C 168.92 46.40 171.43 43.67 174.92 43.61 C 178.44 43.64 180.97 46.38 183.62 48.31 C 231.33 85.24 279.05 122.14 326.78 159.05 C 328.75 156.41 330.72 153.76 332.68 151.10 C 281.43 111.41 230.16 71.77 178.90 32.09 C 176.71 29.90 173.20 29.88 171.01 32.09 M 69.18 44.01 C 69.19 59.97 69.18 75.94 69.19 91.90 C 80.84 82.89 92.49 73.89 104.12 64.87 C 104.12 57.91 104.13 50.96 104.12 44.01 C 92.47 44.00 80.83 43.99 69.18 44.01 M 333.45 222.35 C 282.00 262.15 230.54 301.94 179.10 341.75 C 181.11 344.38 183.13 347.00 185.16 349.62 C 234.12 311.76 283.04 273.87 332.01 236.03 C 334.79 233.61 339.14 233.53 341.96 235.92 C 390.96 273.76 439.89 311.69 488.87 349.55 C 490.85 346.91 492.81 344.25 494.78 341.60 C 443.40 301.82 392.00 262.06 340.61 222.31 C 338.59 220.42 335.44 220.47 333.45 222.35 M 47.79 420.88 C 42.59 425.67 39.60 432.34 38.32 439.21 C 37.69 443.35 33.52 444.89 30.04 445.99 C 24.09 447.93 20.67 454.12 20.41 460.14 C 41.96 460.19 63.51 460.11 85.06 460.18 C 88.71 459.95 92.55 462.30 93.22 466.05 C 94.40 470.45 90.61 475.22 86.06 475.07 C 63.02 475.27 39.96 475.09 16.91 475.16 C 16.91 481.14 16.91 487.13 16.92 493.11 C 82.78 493.15 148.65 493.09 214.51 493.15 C 214.62 487.15 214.53 481.16 214.57 475.17 C 184.05 475.13 153.54 475.19 123.03 475.14 C 119.22 475.46 115.25 472.88 114.72 468.96 C 113.83 464.88 117.09 460.61 121.24 460.30 C 126.24 459.93 131.27 460.26 136.28 460.15 C 137.08 456.12 137.61 451.85 136.07 447.93 C 133.31 439.22 124.00 433.15 114.89 434.40 C 110.85 434.62 107.07 437.70 102.96 436.37 C 99.85 435.51 98.50 432.36 97.20 429.74 C 93.37 421.62 85.79 415.46 77.12 413.21 C 66.90 410.35 55.36 413.48 47.79 420.88 M 140.89 428.49 C 149.29 436.57 153.56 448.58 151.72 460.15 C 165.96 460.18 180.20 460.11 194.44 460.19 C 197.41 450.12 195.16 438.63 188.38 430.58 C 181.62 422.31 170.53 417.82 159.92 419.22 C 152.71 419.96 146.16 423.65 140.89 428.49 Z" />
<path fill="#e30000" opacity="1.00" d=" M 134.16 116.23 C 137.08 115.71 140.06 115.88 143.02 115.87 C 166.02 115.89 189.03 115.86 212.04 115.88 C 216.75 115.60 221.36 118.25 223.67 122.32 C 225.76 125.48 225.33 129.45 225.39 133.05 C 225.36 170.37 225.38 207.70 225.38 245.03 C 225.34 248.35 225.60 251.72 225.04 255.02 C 223.66 260.76 217.97 265.13 212.04 264.81 C 187.02 264.80 162.00 264.87 136.99 264.77 C 130.28 264.78 124.31 258.63 124.52 251.91 C 124.47 210.94 124.49 169.96 124.51 128.98 C 124.25 123.14 128.58 117.68 134.16 116.23 M 139.51 161.53 C 148.82 161.53 158.13 161.54 167.44 161.52 C 167.43 151.31 167.45 141.09 167.43 130.88 C 158.13 130.87 148.83 130.88 139.53 130.88 C 139.47 141.09 139.51 151.31 139.51 161.53 M 182.41 130.96 C 182.48 141.15 182.41 151.34 182.44 161.53 C 191.75 161.53 201.06 161.54 210.37 161.52 C 210.37 151.31 210.38 141.10 210.37 130.89 C 201.05 130.92 191.72 130.78 182.41 130.96 M 139.51 176.54 C 139.50 185.73 139.50 194.92 139.51 204.12 C 148.82 204.12 158.12 204.13 167.43 204.12 C 167.44 194.92 167.44 185.73 167.43 176.54 C 158.12 176.53 148.82 176.53 139.51 176.54 M 182.54 204.18 C 191.81 204.05 201.09 204.16 210.36 204.12 C 210.38 194.92 210.37 185.73 210.37 176.54 C 201.06 176.52 191.76 176.54 182.45 176.53 C 182.48 185.75 182.32 194.97 182.54 204.18 M 139.51 219.12 C 139.50 229.36 139.48 239.59 139.52 249.82 C 148.82 249.80 158.12 249.82 167.43 249.81 C 167.44 239.58 167.44 229.35 167.42 219.12 C 158.12 219.13 148.81 219.12 139.51 219.12 M 182.44 219.14 C 182.44 229.36 182.44 239.58 182.44 249.80 C 191.74 249.83 201.05 249.79 210.35 249.82 C 210.39 239.59 210.37 229.36 210.37 219.13 C 201.06 219.13 191.75 219.11 182.44 219.14 Z" />
<path fill="#e30000" opacity="1.00" d=" M 310.19 416.15 C 314.49 413.77 320.43 416.99 320.79 421.88 C 321.18 427.91 320.93 433.98 320.94 440.02 C 321.16 443.62 318.73 447.37 315.08 448.03 C 310.76 449.18 306.11 445.56 306.08 441.12 C 305.82 435.42 306.00 429.70 305.98 424.00 C 305.82 420.87 307.21 417.50 310.19 416.15 Z" />
</g>
</svg>
