<?xml version="1.0" encoding="UTF-8" ?>
<!DOCTYPE svg PUBLIC "-//W3C//DTD SVG 1.1//EN" "http://www.w3.org/Graphics/SVG/1.1/DTD/svg11.dtd">
<svg width="512pt" height="512pt" viewBox="0 0 512 512" version="1.1" xmlns="http://www.w3.org/2000/svg">
<g id="#e30000ff">
<path fill="#e30000" opacity="1.00" d=" M 452.34 0.00 L 455.66 0.00 C 471.47 0.47 486.97 7.59 497.40 19.50 C 506.41 29.56 511.55 42.84 512.00 56.31 L 512.00 59.65 C 511.28 75.15 504.34 90.38 492.64 100.67 C 484.26 108.41 473.46 112.91 462.36 115.05 C 462.53 142.76 462.41 170.47 462.43 198.18 C 456.93 198.19 451.44 198.19 445.94 198.18 C 445.92 170.43 445.94 142.69 445.94 114.94 C 431.19 112.52 417.29 104.65 408.31 92.62 C 402.30 84.95 398.64 75.64 397.03 66.07 C 394.25 47.97 400.89 28.81 414.15 16.21 C 424.31 6.32 438.20 0.57 452.34 0.00 M 445.45 17.54 C 434.19 20.02 424.10 27.35 418.46 37.43 C 413.81 45.38 412.15 54.96 413.52 64.05 C 415.31 76.21 422.91 87.37 433.61 93.43 C 441.19 97.87 450.25 99.73 458.97 98.65 C 472.34 97.26 484.66 88.68 490.73 76.71 C 496.00 66.74 496.80 54.52 492.93 43.93 C 489.47 34.15 482.13 25.80 472.86 21.15 C 464.51 16.77 454.65 15.66 445.45 17.54 Z" />
<path fill="#e30000" opacity="1.00" d=" M 93.93 41.07 C 109.62 35.36 126.38 33.07 143.03 33.03 C 221.98 33.03 300.93 33.02 379.88 33.04 C 379.88 38.55 379.89 44.06 379.86 49.57 C 300.58 49.57 221.30 49.55 142.02 49.58 C 126.84 49.61 111.59 51.95 97.38 57.38 C 59.44 71.16 29.50 104.71 20.17 143.99 C 13.37 171.57 16.39 201.53 28.90 227.07 C 45.84 262.85 80.97 289.32 120.10 295.51 C 132.62 297.72 145.38 297.22 158.03 297.28 C 234.37 297.29 310.71 297.27 387.04 297.29 C 396.00 297.26 404.99 299.08 413.06 303.01 C 428.03 310.11 439.60 323.96 443.88 339.97 C 447.47 353.21 446.21 367.73 440.19 380.07 C 432.51 396.30 416.82 408.48 399.17 411.79 C 394.48 412.70 389.70 412.93 384.95 412.91 C 339.22 412.90 293.49 412.92 247.76 412.91 C 247.75 407.38 247.70 401.85 247.81 396.33 C 291.54 396.43 335.26 396.34 378.98 396.38 C 387.35 396.46 396.04 396.54 403.86 393.12 C 417.33 387.65 427.37 374.57 428.97 360.10 C 430.05 351.47 428.33 342.52 424.01 334.97 C 417.93 323.99 406.55 316.10 394.10 314.40 C 388.11 313.57 382.05 313.84 376.02 313.82 C 298.01 313.80 220.00 313.83 141.99 313.80 C 124.75 313.69 107.43 311.02 91.30 304.80 C 53.59 290.94 22.68 259.91 8.90 222.18 C 3.24 207.63 0.70 192.05 0.00 176.50 L 0.00 170.56 C 0.75 146.48 7.31 122.50 19.81 101.84 C 36.37 73.73 63.12 51.80 93.93 41.07 Z" />
<path fill="#e30000" opacity="1.00" d=" M 454.19 66.18 C 458.70 65.79 462.16 62.23 462.66 57.76 C 468.10 57.86 473.55 57.78 479.00 57.82 C 479.09 71.05 467.41 82.82 454.13 82.53 C 454.24 77.08 454.16 71.63 454.19 66.18 Z" />
<path fill="#e30000" opacity="1.00" d=" M 156.91 66.06 C 167.92 66.05 178.93 66.06 189.94 66.06 C 189.94 71.57 189.96 77.09 189.92 82.61 C 178.95 82.61 167.97 82.55 156.99 82.63 C 156.82 77.11 156.93 71.59 156.91 66.06 Z" />
<path fill="#e30000" opacity="1.00" d=" M 222.97 66.06 C 233.98 66.05 244.99 66.07 255.99 66.06 C 255.99 71.58 256.04 77.10 255.96 82.62 C 244.99 82.59 234.02 82.55 223.05 82.64 C 222.89 77.12 222.99 71.59 222.97 66.06 Z" />
<path fill="#e30000" opacity="1.00" d=" M 289.03 66.06 C 300.04 66.06 311.05 66.05 322.06 66.06 C 322.05 71.58 322.12 77.10 322.00 82.62 C 311.02 82.58 300.04 82.59 289.06 82.61 C 289.00 77.10 289.03 71.58 289.03 66.06 Z" />
<path fill="#e30000" opacity="1.00" d=" M 355.09 66.07 C 363.35 66.05 371.62 66.05 379.88 66.07 C 379.87 71.58 379.89 77.09 379.86 82.60 C 371.61 82.59 363.36 82.59 355.11 82.60 C 355.07 77.09 355.09 71.58 355.09 66.07 Z" />
<path fill="#e30000" opacity="1.00" d=" M 86.78 80.35 C 97.87 74.13 109.95 69.74 122.49 67.57 C 123.42 72.99 124.35 78.42 125.24 83.85 C 114.61 85.70 104.38 89.46 94.97 94.72 C 92.25 89.92 89.32 85.25 86.78 80.35 Z" />
<path fill="#e30000" opacity="1.00" d=" M 100.67 110.71 C 112.62 103.02 126.82 99.05 141.01 99.11 C 220.63 99.06 300.25 99.10 379.87 99.10 C 379.88 104.61 379.89 110.12 379.87 115.63 C 300.57 115.62 221.27 115.63 141.98 115.63 C 134.35 115.55 126.67 116.73 119.56 119.54 C 104.34 125.38 91.90 137.99 86.25 153.28 C 80.86 167.60 81.52 184.08 88.08 197.91 C 94.73 212.14 107.40 223.45 122.35 228.31 C 136.15 232.93 150.89 230.68 165.15 231.21 C 165.15 225.23 165.18 219.25 165.13 213.27 C 157.30 210.40 150.72 204.63 146.67 197.37 C 138.70 183.56 138.51 165.79 145.52 151.56 C 149.50 143.62 156.15 136.64 164.70 133.73 C 172.21 131.08 180.83 132.12 187.61 136.26 C 195.82 141.23 201.46 149.70 204.19 158.79 C 207.84 170.98 206.94 184.68 200.96 195.99 C 196.89 203.80 190.09 210.24 181.74 213.24 C 181.64 219.23 181.70 225.22 181.70 231.21 C 203.73 231.17 225.77 231.32 247.80 231.13 C 247.70 225.18 247.77 219.24 247.74 213.29 C 243.01 211.40 238.52 208.79 235.02 205.05 C 221.64 190.96 219.59 168.30 228.26 151.25 C 232.31 143.34 239.01 136.42 247.60 133.62 C 255.18 131.05 263.80 132.23 270.54 136.48 C 278.17 141.20 283.48 149.02 286.34 157.41 C 290.65 170.30 289.68 185.06 282.98 196.97 C 278.92 204.41 272.24 210.36 264.26 213.29 C 264.24 219.26 264.25 225.23 264.25 231.20 C 301.17 231.24 338.08 231.20 375.00 231.22 C 385.63 231.19 396.33 231.08 406.86 232.77 C 442.40 237.92 474.95 259.75 493.58 290.38 C 505.19 308.93 511.24 330.65 512.00 352.46 L 512.00 357.49 C 511.36 374.66 507.71 391.80 500.31 407.36 C 491.43 426.46 477.54 443.20 460.43 455.50 C 442.01 468.88 419.79 476.95 397.08 478.52 C 387.72 479.18 378.34 478.93 368.97 478.97 C 328.56 478.97 288.16 478.98 247.75 478.97 C 247.74 473.48 247.77 467.99 247.71 462.50 C 294.14 462.34 340.56 462.50 386.99 462.42 C 399.61 462.39 412.27 460.49 424.15 456.14 C 453.64 445.76 477.90 421.77 488.69 392.43 C 496.87 370.67 497.55 346.19 490.80 323.96 C 486.00 308.24 477.56 293.65 466.29 281.70 C 450.19 264.47 428.26 252.73 404.93 249.17 C 395.04 247.53 384.97 247.75 374.98 247.75 C 297.64 247.75 220.30 247.75 142.97 247.75 C 135.58 247.75 128.16 247.08 121.02 245.12 C 100.91 239.80 83.46 225.49 74.13 206.92 C 65.04 189.27 63.63 167.89 70.19 149.17 C 75.65 133.42 86.53 119.57 100.67 110.71 M 169.35 149.50 C 163.77 151.83 160.40 157.42 158.56 162.93 C 155.68 172.17 156.58 182.83 161.98 190.99 C 164.46 194.72 168.39 197.97 173.06 198.11 C 177.78 198.29 181.92 195.20 184.52 191.50 C 189.65 184.18 190.91 174.64 189.10 166.01 C 187.85 160.46 185.26 154.91 180.69 151.34 C 177.56 148.83 173.11 147.96 169.35 149.50 M 252.29 149.38 C 247.73 151.10 244.50 155.17 242.50 159.47 C 238.14 169.10 238.51 180.91 243.93 190.04 C 246.49 194.26 250.76 198.09 255.95 198.12 C 260.91 198.15 265.08 194.65 267.66 190.69 C 272.37 183.33 273.51 174.00 271.58 165.55 C 270.25 160.04 267.61 154.52 262.92 151.10 C 259.93 148.84 255.83 148.06 252.29 149.38 Z" />
<path fill="#e30000" opacity="1.00" d=" M 53.17 110.80 C 57.67 113.99 62.16 117.21 66.60 120.49 C 60.11 129.61 55.29 139.89 52.40 150.72 C 47.07 149.31 41.69 148.04 36.38 146.51 C 39.90 133.75 45.52 121.61 53.17 110.80 Z" />
<path fill="#e30000" opacity="1.00" d=" M 33.40 182.36 C 38.89 181.88 44.38 181.45 49.88 181.00 C 50.80 191.45 53.48 201.70 57.78 211.27 C 52.81 213.58 47.81 215.82 42.86 218.15 C 37.60 206.90 34.56 194.70 33.40 182.36 Z" />
<path fill="#e30000" opacity="1.00" d=" M 69.39 253.94 C 72.99 249.80 76.67 245.74 80.25 241.59 C 89.13 249.05 99.14 255.18 110.08 259.10 C 108.26 264.29 106.45 269.48 104.56 274.66 C 91.70 269.96 79.73 262.93 69.39 253.94 Z" />
<path fill="#e30000" opacity="1.00" d=" M 140.37 264.25 C 151.37 264.22 162.36 264.30 173.36 264.21 C 173.45 269.74 173.40 275.26 173.39 280.79 C 162.38 280.77 151.38 280.80 140.37 280.78 C 140.37 275.27 140.37 269.76 140.37 264.25 Z" />
<path fill="#e30000" opacity="1.00" d=" M 206.35 264.37 C 217.37 264.07 228.41 264.35 239.44 264.23 C 239.50 269.75 239.47 275.27 239.46 280.79 C 228.43 280.70 217.38 280.94 206.35 280.66 C 206.49 275.23 206.49 269.80 206.35 264.37 Z" />
<path fill="#e30000" opacity="1.00" d=" M 272.59 264.21 C 283.58 264.31 294.57 264.21 305.57 264.26 C 305.56 269.76 305.56 275.27 305.57 280.77 C 294.59 280.85 283.61 280.68 272.64 280.86 C 272.43 275.31 272.51 269.76 272.59 264.21 Z" />
<path fill="#e30000" opacity="1.00" d=" M 338.69 264.18 C 349.67 264.33 360.65 264.20 371.63 264.25 C 371.63 269.76 371.63 275.27 371.63 280.78 C 360.65 280.84 349.68 280.68 338.71 280.86 C 338.51 275.30 338.54 269.74 338.69 264.18 Z" />
<path fill="#e30000" opacity="1.00" d=" M 406.27 266.08 C 419.41 268.86 431.86 274.46 442.65 282.46 C 439.38 286.83 436.03 291.14 432.86 295.59 C 423.99 289.29 413.99 284.70 403.38 282.29 C 403.56 277.03 405.47 271.46 406.27 266.08 Z" />
<path fill="#e30000" opacity="1.00" d=" M 456.24 325.54 C 461.25 323.14 466.32 320.79 471.56 318.91 C 476.18 330.41 478.94 342.67 478.96 355.09 C 473.43 355.05 467.90 355.21 462.38 354.98 C 462.37 344.88 460.35 334.78 456.24 325.54 Z" />
<path fill="#e30000" opacity="1.00" d=" M 16.86 345.04 C 17.46 341.64 20.62 338.92 24.06 338.76 C 27.71 338.39 31.39 338.63 35.05 338.59 C 79.04 338.58 123.04 338.62 167.03 338.57 C 170.24 338.65 173.59 338.23 176.69 339.32 C 179.31 340.30 180.70 342.89 181.79 345.29 C 191.39 366.99 201.05 388.65 210.68 410.33 C 212.42 414.37 214.80 418.38 214.73 422.92 C 214.78 427.86 214.63 432.81 214.81 437.76 C 218.47 437.73 222.23 437.31 225.81 438.28 C 229.41 439.47 231.37 443.34 231.20 447.00 C 231.30 456.33 231.15 465.67 231.25 475.01 C 231.21 478.35 231.39 482.28 228.72 484.76 C 226.51 487.14 223.05 487.21 220.03 487.25 C 212.38 487.21 204.73 487.21 197.08 487.22 C 193.40 501.17 180.23 511.85 165.71 512.00 L 163.55 512.00 C 149.54 511.30 136.79 500.94 133.39 487.32 C 121.59 487.10 109.79 487.27 97.98 487.23 C 94.37 500.88 81.70 511.40 67.52 512.00 L 64.52 512.00 C 50.38 511.36 37.76 500.85 34.17 487.22 C 25.45 487.11 16.72 487.42 8.00 487.10 C 3.80 487.11 0.55 483.56 0.00 479.56 L 0.00 445.49 C 0.51 442.51 2.12 439.51 5.08 438.40 C 8.78 437.27 12.72 437.75 16.53 437.68 C 16.52 410.11 16.54 382.54 16.52 354.97 C 16.55 351.66 16.30 348.32 16.86 345.04 M 33.03 355.10 C 33.00 385.09 33.08 415.08 33.00 445.08 C 33.16 448.66 31.15 452.36 27.66 453.57 C 24.06 454.60 20.25 454.09 16.56 454.17 C 16.48 459.64 16.63 465.12 16.44 470.59 C 22.35 470.86 28.27 470.65 34.19 470.72 C 36.78 461.47 43.23 453.26 52.02 449.19 C 62.23 444.19 75.03 445.17 84.38 451.63 C 91.09 456.05 95.74 463.06 97.96 470.71 C 109.76 470.68 121.56 470.79 133.36 470.66 C 135.90 461.11 142.80 452.78 151.89 448.83 C 162.35 444.03 175.31 445.46 184.51 452.36 C 190.70 456.78 194.93 463.48 197.06 470.72 C 202.94 470.72 208.83 470.72 214.72 470.72 C 214.72 465.21 214.71 459.69 214.72 454.19 C 211.42 454.15 208.10 454.41 204.83 453.90 C 201.07 453.30 198.30 449.68 198.26 445.94 C 198.01 438.64 198.33 431.32 198.15 424.02 C 198.15 422.59 197.46 421.31 196.94 420.03 C 187.26 398.41 177.71 376.73 168.06 355.10 C 123.05 355.09 78.04 355.10 33.03 355.10 M 60.35 463.52 C 55.33 465.36 51.36 469.75 50.10 474.94 C 47.34 484.51 55.10 495.09 65.02 495.39 C 74.89 496.37 83.91 486.84 82.42 477.04 C 81.56 466.82 69.87 459.58 60.35 463.52 M 159.44 463.52 C 154.47 465.36 150.49 469.71 149.21 474.87 C 146.40 484.41 154.13 495.04 164.04 495.39 C 173.93 496.42 182.99 486.89 181.52 477.08 C 180.68 466.84 168.98 459.57 159.44 463.52 Z" />
<path fill="#e30000" opacity="1.00" d=" M 54.38 372.43 C 56.81 371.46 59.50 371.64 62.07 371.60 C 71.69 371.72 81.31 371.48 90.93 371.71 C 95.34 371.63 99.10 375.60 99.01 379.96 C 99.23 392.65 99.00 405.34 99.12 418.03 C 99.15 421.26 99.00 424.99 96.30 427.23 C 93.84 429.64 90.16 429.38 86.99 429.43 C 77.34 429.33 67.68 429.52 58.03 429.35 C 53.46 429.53 49.43 425.49 49.62 420.92 C 49.49 407.61 49.58 394.29 49.57 380.98 C 49.38 377.49 51.10 373.89 54.38 372.43 M 66.07 388.12 C 66.06 396.38 66.06 404.65 66.07 412.91 C 71.58 412.89 77.10 412.93 82.61 412.88 C 82.58 404.63 82.59 396.39 82.61 388.15 C 77.09 388.10 71.58 388.13 66.07 388.12 Z" />
<path fill="#e30000" opacity="1.00" d=" M 120.39 372.46 C 123.46 371.26 126.84 371.68 130.06 371.61 C 139.01 371.69 147.96 371.52 156.90 371.68 C 160.77 371.55 163.94 374.51 165.06 378.05 C 170.20 390.90 175.35 403.75 180.50 416.60 C 181.98 419.96 181.99 424.38 179.04 426.95 C 176.76 429.45 173.11 429.39 170.00 429.43 C 154.70 429.33 139.41 429.51 124.12 429.35 C 119.57 429.54 115.51 425.53 115.69 420.98 C 115.54 407.67 115.65 394.35 115.64 381.03 C 115.43 377.54 117.12 373.94 120.39 372.46 M 132.13 388.13 C 132.12 396.39 132.12 404.64 132.13 412.90 C 141.82 412.90 151.51 412.91 161.21 412.90 C 157.86 404.62 154.68 396.27 151.19 388.05 C 144.84 388.20 138.48 388.09 132.13 388.13 Z" />
<path fill="#e30000" opacity="1.00" d=" M 456.27 384.83 C 461.32 387.06 466.45 389.13 471.41 391.56 C 464.85 405.71 455.01 418.23 442.66 427.78 C 439.37 423.33 435.91 419.00 432.77 414.45 C 442.96 406.76 450.98 396.42 456.27 384.83 Z" />
<path fill="#e30000" opacity="1.00" d=" M 371.61 429.44 C 382.08 429.27 392.64 429.93 402.99 427.95 C 404.09 433.34 405.22 438.72 406.24 444.13 C 394.84 446.36 383.18 445.92 371.63 445.94 C 371.61 440.44 371.64 434.94 371.61 429.44 Z" />
<path fill="#e30000" opacity="1.00" d=" M 247.69 429.51 C 255.97 429.27 264.25 429.46 272.53 429.41 C 272.54 434.91 272.51 440.40 272.55 445.90 C 264.29 445.98 256.02 445.92 247.76 445.94 C 247.72 440.46 247.80 434.98 247.69 429.51 Z" />
<path fill="#e30000" opacity="1.00" d=" M 305.55 429.43 C 316.56 429.37 327.58 429.41 338.59 429.41 C 338.60 434.91 338.58 440.41 338.61 445.92 C 327.60 445.97 316.58 445.93 305.57 445.94 C 305.55 440.43 305.57 434.93 305.55 429.43 Z" />
</g>
</svg>
